<svg version="1.1" xmlns="http://www.w3.org/2000/svg" viewBox="0 0 672.5859375 646" width="1345.171875" height="1292" filter="invert(93%) hue-rotate(180deg)">
  <!-- svg-source:excalidraw -->

  <defs>
    <style class="style-fonts">
      @font-face {
        font-family: "Virgil";
        src: url("https://excalidraw.com/Virgil.woff2");
      }
      @font-face {
        font-family: "Cascadia";
        src: url("https://excalidraw.com/Cascadia.woff2");
      }
      @font-face {
        font-family: "Assistant";
        src: url("https://excalidraw.com/Assistant-Regular.woff2");
      }
    </style>

  </defs>
  <rect x="0" y="0" width="672.5859375" height="646" fill="#ffffff"></rect><g stroke-linecap="round" transform="translate(10 239.5) rotate(0 123.4921875 67)"><path d="M0 0 C73.29 2.05, 146.65 3.17, 246.98 0 M0 0 C63.36 0.08, 127.45 -0.53, 246.98 0 M246.98 0 C247.57 30.3, 248.55 62.45, 246.98 134 M246.98 0 C246.65 36.56, 247.36 70.4, 246.98 134 M246.98 134 C190.24 132, 136.8 133.5, 0 134 M246.98 134 C190.69 131.81, 133.18 132.5, 0 134 M0 134 C-0.37 96.45, 0.15 55.98, 0 0 M0 134 C1.04 92.48, 0.28 50.78, 0 0" stroke="#1e1e1e" stroke-width="2" fill="none"></path></g><g stroke-linecap="round" transform="translate(99.03515625 10) rotate(0 133.41796875 67)"><path d="M0 0 C57.52 1, 112.26 0.49, 266.84 0 M0 0 C86.64 -1.44, 171.78 -1.07, 266.84 0 M266.84 0 C267.89 28.69, 266.19 57.17, 266.84 134 M266.84 0 C267.44 33.4, 266.01 69.29, 266.84 134 M266.84 134 C192.77 131.86, 116.35 131.37, 0 134 M266.84 134 C209.92 133.04, 152.18 133.25, 0 134 M0 134 C0.63 91.98, 0 46.7, 0 0 M0 134 C-0.79 96.35, -1.08 57.64, 0 0" stroke="#1e1e1e" stroke-width="2" fill="none"></path></g><g stroke-linecap="round" transform="translate(405.84375 223) rotate(0 128.37109375 83.5)"><path d="M0 0 C80.27 -0.9, 162.3 -1.95, 256.74 0 M0 0 C93.36 0.48, 187.12 0.17, 256.74 0 M256.74 0 C256.93 41.52, 256.73 83.79, 256.74 167 M256.74 0 C257.1 65.1, 257.66 128.34, 256.74 167 M256.74 167 C203.57 166.28, 151.23 168.47, 0 167 M256.74 167 C194.05 168, 131.61 167.71, 0 167 M0 167 C-0.49 99.49, -1.06 35.01, 0 0 M0 167 C0.17 112.39, 1.71 58.97, 0 0" stroke="#1e1e1e" stroke-width="2" fill="none"></path></g><g stroke-linecap="round" transform="translate(172.02734375 469) rotate(0 159.38671875 83.5)"><path d="M0 0 C122.66 -1.35, 245.6 -0.29, 318.77 0 M0 0 C92.63 -0.89, 186.11 -0.54, 318.77 0 M318.77 0 C317.34 49.05, 319.94 99.64, 318.77 167 M318.77 0 C317.31 32.89, 316.54 67.79, 318.77 167 M318.77 167 C223.77 167.55, 130.36 166.86, 0 167 M318.77 167 C214.56 168.32, 110.73 168.51, 0 167 M0 167 C-0.53 109.41, 0.29 50.13, 0 0 M0 167 C2.19 111.93, 1.99 56.18, 0 0" stroke="#1e1e1e" stroke-width="2" fill="none"></path></g><g stroke-linecap="round"><g transform="translate(10 280.5) rotate(0 123.4921875 0)"><path d="M0 0 C87.97 1.29, 173.66 -0.82, 246.98 0 M0 0 C83.66 0.38, 168.07 -0.32, 246.98 0" stroke="#000" stroke-width="1" fill="none"></path></g></g><mask></mask><g stroke-linecap="round"><g transform="translate(10 362.5) rotate(0 123.4921875 0)"><path d="M0 0 C70.62 -2.34, 142.15 -2.65, 246.98 0 M0 0 C74.59 -1.32, 149.09 -1.4, 246.98 0" stroke="#000" stroke-width="1" fill="none"></path></g></g><mask></mask><g stroke-linecap="round"><g transform="translate(99.03515625 51) rotate(0 133.41796875 0)"><path d="M0 0 C97.13 0.06, 193.02 0.63, 266.84 0 M0 0 C93.56 0.37, 187.43 1.39, 266.84 0" stroke="#000" stroke-width="1" fill="none"></path></g></g><mask></mask><g stroke-linecap="round"><g transform="translate(99.03515625 133) rotate(0 133.41796875 0)"><path d="M0 0 C62.32 1.02, 125.38 1.7, 266.84 0 M0 0 C71.03 1.6, 142.66 0.14, 266.84 0" stroke="#000" stroke-width="1" fill="none"></path></g></g><mask></mask><g stroke-linecap="round"><g transform="translate(405.84375 264) rotate(0 128.37109375 0)"><path d="M0 0 C56 0.92, 109.81 0.66, 256.74 0 M0 0 C66.41 -2.58, 131.14 -1.37, 256.74 0" stroke="#000" stroke-width="1" fill="none"></path></g></g><mask></mask><g stroke-linecap="round"><g transform="translate(405.84375 379) rotate(0 128.37109375 0)"><path d="M0 0 C63.94 -0.23, 128.27 0.04, 256.74 0 M0 0 C98.66 2.45, 198.39 1.39, 256.74 0" stroke="#000" stroke-width="1" fill="none"></path></g></g><mask></mask><g stroke-linecap="round"><g transform="translate(172.02734375 510) rotate(0 159.38671875 0)"><path d="M0 0 C93.21 0.41, 188.86 1.42, 318.77 0 M0 0 C64.17 -1.74, 127.94 -0.89, 318.77 0" stroke="#000" stroke-width="1" fill="none"></path></g></g><mask></mask><g stroke-linecap="round"><g transform="translate(172.02734375 625) rotate(0 159.38671875 0)"><path d="M0 0 C90 1.05, 176.18 -0.95, 318.77 0 M0 0 C111.66 2.08, 224.65 1.31, 318.77 0" stroke="#000" stroke-width="1" fill="none"></path></g></g><mask></mask><g mask="url(#mask-x4pe2UwA0QEODD8p8vnwu)" stroke-linecap="round"><g transform="translate(133.99199999999996 374) rotate(0 31.279999999999973 47.25)"><path d="M0.8 -1.18 C11.09 14.5, 51.4 79.34, 61.65 95.13 M-0.24 0.82 C10.43 16.67, 53.61 77.75, 63.89 93.34" stroke="#1e1e1e" stroke-width="2" fill="none"></path></g></g><mask id="mask-x4pe2UwA0QEODD8p8vnwu"><rect x="0" y="0" fill="#fff" width="297.55199999999996" height="569.5"></rect><rect x="87.53603808593743" y="411.25" fill="#000" width="155.471923828125" height="20" opacity="1"></rect></mask><g mask="url(#mask-8aAgmMC7Orl0jFDe4OY4_)" stroke-linecap="round"><g transform="translate(169.6959999999999 144.5) rotate(0 -17.851999999999975 47.25)"><path d="M-0.91 0.63 C-7.03 16.42, -29.95 77.81, -35.94 93.54 M0.82 -0.09 C-5.56 15.92, -31.12 79.07, -37.02 94.57" stroke="#1e1e1e" stroke-width="2" fill="none"></path></g></g><mask id="mask-8aAgmMC7Orl0jFDe4OY4_"><rect x="0" y="0" fill="#fff" width="306.3999999999999" height="340"></rect><rect x="124.58801092529302" y="181.75" fill="#000" width="54.51197814941406" height="20" opacity="1"></rect></mask><g mask="url(#mask-IDIqfXUIyEZ7sjKkjyKIY)" stroke-linecap="round"><g transform="translate(295.21000000000004 144.5) rotate(0 17.851999999999975 162)"><path d="M-0.24 -0.96 C5.67 53.01, 28.56 270.46, 34.54 324.48 M-1.83 1.15 C4.51 54.7, 30.53 268.8, 36.64 322.62" stroke="#1e1e1e" stroke-width="2" fill="none"></path></g></g><mask id="mask-IDIqfXUIyEZ7sjKkjyKIY"><rect x="0" y="0" fill="#fff" width="431.91400000000004" height="569.5"></rect><rect x="286.5740162963866" y="296.5" fill="#000" width="52.97596740722656" height="20" opacity="1"></rect></mask><g mask="url(#mask-dlLm_vk8K-vpRXv5VXBZH)" stroke-linecap="round"><g transform="translate(533.7150000000001 390.5) rotate(0 -32.063499999999976 39)"><path d="M-1.17 0.48 C-11.83 13.51, -53.63 64.43, -64.2 77.17 M0.42 -0.31 C-10.38 12.93, -54.18 65.27, -65.18 78.28" stroke="#1e1e1e" stroke-width="2" fill="none"></path></g></g><mask id="mask-dlLm_vk8K-vpRXv5VXBZH"><rect x="0" y="0" fill="#fff" width="698.8420000000001" height="569.5"></rect><rect x="475.1635162963869" y="419.5" fill="#000" width="52.97596740722656" height="20" opacity="1"></rect></mask><g transform="translate(17.5 244.5) rotate(0 92.09991455078125 12.5)"><text x="0" y="0" font-family="Virgil, Segoe UI Emoji" font-size="20px" fill="#1e1e1e" text-anchor="start" style="white-space: pre;" direction="ltr" dominant-baseline="text-before-edge">NotificationChannel</text></g><g transform="translate(17.5 289.5) rotate(0 61.919944763183594 12.5)"><text x="0" y="0" font-family="Virgil, Segoe UI Emoji" font-size="20px" fill="#1e1e1e" text-anchor="start" style="white-space: pre;" direction="ltr" dominant-baseline="text-before-edge">-name: string</text></g><g transform="translate(17.5 322.5) rotate(0 64.17993927001953 12.5)"><text x="0" y="0" font-family="Virgil, Segoe UI Emoji" font-size="20px" fill="#1e1e1e" text-anchor="start" style="white-space: pre;" direction="ltr" dominant-baseline="text-before-edge">-details: json</text></g><g transform="translate(143.546875 15) rotate(0 73.1499252319336 12.5)"><text x="0" y="0" font-family="Virgil, Segoe UI Emoji" font-size="20px" fill="#1e1e1e" text-anchor="start" style="white-space: pre;" direction="ltr" dominant-baseline="text-before-edge">NotificationLog</text></g><g transform="translate(106.53515625 60) rotate(0 73.72992706298828 12.5)"><text x="0" y="0" font-family="Virgil, Segoe UI Emoji" font-size="20px" fill="#1e1e1e" text-anchor="start" style="white-space: pre;" direction="ltr" dominant-baseline="text-before-edge">-message: text</text></g><g transform="translate(106.53515625 93) rotate(0 111.05989837646484 12.5)"><text x="0" y="0" font-family="Virgil, Segoe UI Emoji" font-size="20px" fill="#1e1e1e" text-anchor="start" style="white-space: pre;" direction="ltr" dominant-baseline="text-before-edge">-was_success: boolean</text></g><g transform="translate(450.9609375 228) rotate(0 64.50994110107422 12.5)"><text x="0" y="0" font-family="Virgil, Segoe UI Emoji" font-size="20px" fill="#1e1e1e" text-anchor="start" style="white-space: pre;" direction="ltr" dominant-baseline="text-before-edge">UptimeRecord</text></g><g transform="translate(413.34375 273) rotate(0 81.63992309570312 12.5)"><text x="0" y="0" font-family="Virgil, Segoe UI Emoji" font-size="20px" fill="#1e1e1e" text-anchor="start" style="white-space: pre;" direction="ltr" dominant-baseline="text-before-edge">-status: boolean</text></g><g transform="translate(413.34375 306) rotate(0 106.01988983154297 12.5)"><text x="0" y="0" font-family="Virgil, Segoe UI Emoji" font-size="20px" fill="#1e1e1e" text-anchor="start" style="white-space: pre;" direction="ltr" dominant-baseline="text-before-edge">-response_time: float</text></g><g transform="translate(413.34375 339) rotate(0 105.89989471435547 12.5)"><text x="0" y="0" font-family="Virgil, Segoe UI Emoji" font-size="20px" fill="#1e1e1e" text-anchor="start" style="white-space: pre;" direction="ltr" dominant-baseline="text-before-edge">-error_message: text</text></g><g transform="translate(288.20703125 474) rotate(0 33.75996398925781 12.5)"><text x="0" y="0" font-family="Virgil, Segoe UI Emoji" font-size="20px" fill="#1e1e1e" text-anchor="start" style="white-space: pre;" direction="ltr" dominant-baseline="text-before-edge">Service</text></g><g transform="translate(179.52734375 519) rotate(0 61.919944763183594 12.5)"><text x="0" y="0" font-family="Virgil, Segoe UI Emoji" font-size="20px" fill="#1e1e1e" text-anchor="start" style="white-space: pre;" direction="ltr" dominant-baseline="text-before-edge">-name: string</text></g><g transform="translate(179.52734375 552) rotate(0 84.99990844726562 12.5)"><text x="0" y="0" font-family="Virgil, Segoe UI Emoji" font-size="20px" fill="#1e1e1e" text-anchor="start" style="white-space: pre;" direction="ltr" dominant-baseline="text-before-edge">-description: text</text></g><g transform="translate(179.52734375 585) rotate(0 122.83987426757812 12.5)"><text x="0" y="0" font-family="Virgil, Segoe UI Emoji" font-size="20px" fill="#1e1e1e" text-anchor="start" style="white-space: pre;" direction="ltr" dominant-baseline="text-before-edge">-moniotoring_endpoint: url</text></g><g transform="translate(113.49199999999996 378.5) rotate(0 2.167999267578125 10)"><text x="0" y="0" font-family="Virgil, Segoe UI Emoji" font-size="16px" fill="#1e1e1e" text-anchor="start" style="white-space: pre;" direction="ltr" dominant-baseline="text-before-edge">1</text></g><g transform="translate(217.0519999999999 444) rotate(0 4.127998352050781 10)"><text x="0" y="0" font-family="Virgil, Segoe UI Emoji" font-size="16px" fill="#1e1e1e" text-anchor="start" style="white-space: pre;" direction="ltr" dominant-baseline="text-before-edge">*</text></g><g transform="translate(135.1959999999999 149) rotate(0 4.127998352050781 10)"><text x="0" y="0" font-family="Virgil, Segoe UI Emoji" font-size="16px" fill="#1e1e1e" text-anchor="start" style="white-space: pre;" direction="ltr" dominant-baseline="text-before-edge">*</text></g><g transform="translate(168.49199999999996 214.5) rotate(0 2.167999267578125 10)"><text x="0" y="0" font-family="Virgil, Segoe UI Emoji" font-size="16px" fill="#1e1e1e" text-anchor="start" style="white-space: pre;" direction="ltr" dominant-baseline="text-before-edge">1</text></g><g transform="translate(274.71000000000004 149) rotate(0 4.127998352050781 10)"><text x="0" y="0" font-family="Virgil, Segoe UI Emoji" font-size="16px" fill="#1e1e1e" text-anchor="start" style="white-space: pre;" direction="ltr" dominant-baseline="text-before-edge">*</text></g><g transform="translate(351.4140000000002 444) rotate(0 2.167999267578125 10)"><text x="0" y="0" font-family="Virgil, Segoe UI Emoji" font-size="16px" fill="#1e1e1e" text-anchor="start" style="white-space: pre;" direction="ltr" dominant-baseline="text-before-edge">1</text></g><g transform="translate(499.21500000000015 395) rotate(0 4.127998352050781 10)"><text x="0" y="0" font-family="Virgil, Segoe UI Emoji" font-size="16px" fill="#1e1e1e" text-anchor="start" style="white-space: pre;" direction="ltr" dominant-baseline="text-before-edge">*</text></g><g transform="translate(504.0880000000002 444) rotate(0 2.167999267578125 10)"><text x="0" y="0" font-family="Virgil, Segoe UI Emoji" font-size="16px" fill="#1e1e1e" text-anchor="start" style="white-space: pre;" direction="ltr" dominant-baseline="text-before-edge">1</text></g><g transform="translate(87.53603808593743 411.25) rotate(0 78.2819519817923 9.725015559792496)"><text x="77.7359619140625" y="0" font-family="Virgil, Segoe UI Emoji" font-size="16px" fill="#1e1e1e" text-anchor="middle" style="white-space: pre;" direction="ltr" dominant-baseline="text-before-edge">notification_channel</text></g><g transform="translate(124.58801092529302 181.75) rotate(0 27.00717926383936 9.99161961331032)"><text x="27.25598907470703" y="0" font-family="Virgil, Segoe UI Emoji" font-size="16px" fill="#1e1e1e" text-anchor="middle" style="white-space: pre;" direction="ltr" dominant-baseline="text-before-edge">channel</text></g><g transform="translate(286.5740162963866 296.5) rotate(0 26.041617590198484 9.760936847329106)"><text x="26.48798370361328" y="0" font-family="Virgil, Segoe UI Emoji" font-size="16px" fill="#1e1e1e" text-anchor="middle" style="white-space: pre;" direction="ltr" dominant-baseline="text-before-edge">service</text></g><g transform="translate(475.1635162963869 419.5) rotate(0 26.17279168010691 9.985833323141549)"><text x="26.48798370361328" y="0" font-family="Virgil, Segoe UI Emoji" font-size="16px" fill="#1e1e1e" text-anchor="middle" style="white-space: pre;" direction="ltr" dominant-baseline="text-before-edge">service</text></g></svg>
