<svg version="1.1" xmlns="http://www.w3.org/2000/svg" viewBox="0 0 741.9685265812504 770.5441089408147" width="1483.937053162501" height="1541.0882178816294" filter="invert(93%) hue-rotate(180deg)">
  <!-- svg-source:excalidraw -->

  <defs>
    <style class="style-fonts">
      @font-face {
        font-family: "Virgil";
        src: url("https://excalidraw.com/Virgil.woff2");
      }
      @font-face {
        font-family: "Cascadia";
        src: url("https://excalidraw.com/Cascadia.woff2");
      }
      @font-face {
        font-family: "Assistant";
        src: url("https://excalidraw.com/Assistant-Regular.woff2");
      }
    </style>

  </defs>
  <rect x="0" y="0" width="741.9685265812504" height="770.5441089408147" fill="#ffffff"></rect><g stroke-linecap="round" transform="translate(10 518.5441089408147) rotate(0 337.109375 121)"><path d="M0 0 C171.83 1.14, 345.4 1.14, 674.22 0 M0 0 C167.46 -1.94, 335.43 -1.62, 674.22 0 M674.22 0 C674.5 54.42, 673.4 111.37, 674.22 242 M674.22 0 C674.13 91.91, 673.51 184.9, 674.22 242 M674.22 242 C439.69 239.99, 206.07 239.82, 0 242 M674.22 242 C448.65 239.87, 222.97 239.98, 0 242 M0 242 C0.33 185.52, 0.28 124.15, 0 0 M0 242 C1.1 146.37, 0.77 49.12, 0 0" stroke="#1e1e1e" stroke-width="2" fill="none"></path></g><g stroke-linecap="round" transform="translate(237.36794750977242 10) rotate(0 82.75 47)"><path d="M0 0 C42.8 -0.06, 82.67 0.67, 165.5 0 M0 0 C59.11 1.31, 118.48 1.52, 165.5 0 M165.5 0 C163.89 34.53, 167.03 65.65, 165.5 94 M165.5 0 C164.78 36.98, 165.98 73.46, 165.5 94 M165.5 94 C131.79 95.5, 96.81 93.62, 0 94 M165.5 94 C130.52 95.91, 94.75 94.44, 0 94 M0 94 C-0.62 57.38, 2.45 23.5, 0 0 M0 94 C-0.41 62, -0.03 31.44, 0 0" stroke="#1e1e1e" stroke-width="2" fill="none"></path></g><g stroke-linecap="round" transform="translate(118.79177563477242 183) rotate(0 196.138671875 121)"><path d="M0 0 C110.57 0.6, 223.02 -0.66, 392.28 0 M0 0 C86.59 0.09, 174.31 -0.09, 392.28 0 M392.28 0 C392.09 64.06, 392.2 128.31, 392.28 242 M392.28 0 C391.2 64.49, 390.06 127.61, 392.28 242 M392.28 242 C254.28 241.99, 114.46 242.94, 0 242 M392.28 242 C249.78 243.66, 108.37 243.7, 0 242 M0 242 C2.73 144.61, 1.72 49, 0 0 M0 242 C0.98 150.74, 0.61 57.96, 0 0" stroke="#1e1e1e" stroke-width="2" fill="none"></path></g><g stroke-linecap="round" transform="translate(166.76638500977242 208) rotate(0 153.3515625 22)"><path d="M11 0 C92.61 -1.78, 171.2 -1.18, 295.7 0 M11 0 C97.21 -0.55, 182.4 -1.06, 295.7 0 M295.7 0 C304.69 1.62, 306.6 5.41, 306.7 11 M295.7 0 C303.06 -0.82, 305.02 5, 306.7 11 M306.7 11 C306.2 19.7, 307.84 26.92, 306.7 33 M306.7 11 C306.76 18.99, 306.66 26.61, 306.7 33 M306.7 33 C305.51 39.14, 304.41 42.96, 295.7 44 M306.7 33 C308.96 39.06, 300.76 46.25, 295.7 44 M295.7 44 C229.09 42.78, 159.51 43.36, 11 44 M295.7 44 C190.45 43.01, 84.3 43.43, 11 44 M11 44 C2.27 43.5, 1.42 38.71, 0 33 M11 44 C4.98 42.23, 1.21 42.16, 0 33 M0 33 C-1.85 25.76, -1.5 18.27, 0 11 M0 33 C-0.01 28.22, -0.22 21.85, 0 11 M0 11 C0.65 5.66, 2.81 -0.61, 11 0 M0 11 C0.52 2.72, 4.41 2, 11 0" stroke="#1e1e1e" stroke-width="2" fill="none"></path></g><g stroke-linecap="round" transform="translate(295.3718537597724 356) rotate(0 69.34765625 22)"><path d="M11 0 C46.73 0.04, 85.61 -0.41, 127.7 0 M11 0 C48.24 -0.65, 87.01 0.92, 127.7 0 M127.7 0 C134.93 1.74, 138.72 2.95, 138.7 11 M127.7 0 C133.34 1.33, 139.79 5.19, 138.7 11 M138.7 11 C139.61 16.24, 139.32 18.97, 138.7 33 M138.7 11 C138.83 16.54, 138.14 19.73, 138.7 33 M138.7 33 C140.06 39.3, 136.99 42.89, 127.7 44 M138.7 33 C136.42 42.58, 133.61 44.84, 127.7 44 M127.7 44 C93.89 42.97, 62.97 42.07, 11 44 M127.7 44 C97.27 44.26, 66.57 43.59, 11 44 M11 44 C5.09 42.37, 1.14 38.79, 0 33 M11 44 C4.88 45.83, 1.19 39.23, 0 33 M0 33 C-1.39 29.31, -0.8 25.63, 0 11 M0 33 C-0.09 27.98, 0.29 24.35, 0 11 M0 11 C-0.85 3.06, 4.12 -0.82, 11 0 M0 11 C0.74 5.67, 2.76 -1.04, 11 0" stroke="#1e1e1e" stroke-width="2" fill="none"></path></g><g stroke-linecap="round" transform="translate(272.3679475097724 35) rotate(0 47.75 22)"><path d="M11 0 C26.51 -1.09, 42.41 1.36, 84.5 0 M11 0 C33.16 1.37, 53.62 1.43, 84.5 0 M84.5 0 C91.85 -0.72, 94.04 4.82, 95.5 11 M84.5 0 C92.93 1.52, 93.42 2.92, 95.5 11 M95.5 11 C96.3 17.5, 93.85 26.92, 95.5 33 M95.5 11 C94.92 18.38, 96.21 26.43, 95.5 33 M95.5 33 C97.46 39.23, 89.85 45.96, 84.5 44 M95.5 33 C94.08 41.17, 91.45 45.83, 84.5 44 M84.5 44 C68.02 42.59, 47.88 44.84, 11 44 M84.5 44 C62.77 44.06, 43.14 43.5, 11 44 M11 44 C4.81 42.46, 1.05 41.92, 0 33 M11 44 C4.86 42.89, -2.25 38.08, 0 33 M0 33 C-0.84 27.37, -1.44 19.02, 0 11 M0 33 C0.34 25.86, -0.41 16.42, 0 11 M0 11 C0.46 2.84, 4.31 1.74, 11 0 M0 11 C-0.91 2.62, 5.39 -0.68, 11 0" stroke="#1e1e1e" stroke-width="2" fill="none"></path></g><g stroke-linecap="round" transform="translate(253.982421875 543.5441089408147) rotate(0 43.32421875 22)"><path d="M11 0 C27.61 1.47, 43.14 -0.23, 75.65 0 M11 0 C25.43 0.35, 39.97 -0.88, 75.65 0 M75.65 0 C81.52 1.16, 87.6 4.99, 86.65 11 M75.65 0 C80.9 -0.74, 87.86 4.8, 86.65 11 M86.65 11 C84.96 18.69, 87.97 25.78, 86.65 33 M86.65 11 C87.2 19.02, 87.5 27.53, 86.65 33 M86.65 33 C84.67 42.29, 81.75 44.73, 75.65 44 M86.65 33 C86.27 42.16, 81.68 43.16, 75.65 44 M75.65 44 C56.64 44.57, 39.01 43.17, 11 44 M75.65 44 C54.24 43.02, 31.98 43.07, 11 44 M11 44 C4.72 45.59, 1.04 39.37, 0 33 M11 44 C1.42 41.75, 0.57 38.48, 0 33 M0 33 C-1.5 25.89, 1.51 18.03, 0 11 M0 33 C-0.5 26.52, 0.16 20.23, 0 11 M0 11 C0.65 5.41, 2.88 -0.91, 11 0 M0 11 C1.73 2.99, 2.72 1.83, 11 0" stroke="#1e1e1e" stroke-width="2" fill="none"></path></g><g stroke-linecap="round" transform="translate(45 691.5441089408147) rotate(0 31.359375 22)"><path d="M11 0 C20.06 -0.9, 27.99 1.45, 51.72 0 M11 0 C26.53 -0.71, 41.3 0.22, 51.72 0 M51.72 0 C60 1.32, 60.91 3.02, 62.72 11 M51.72 0 C60.27 1.14, 63.44 4.46, 62.72 11 M62.72 11 C63.77 16.41, 64.29 20.24, 62.72 33 M62.72 11 C63.85 15.74, 61.88 22.56, 62.72 33 M62.72 33 C61.48 41.06, 58.72 45.59, 51.72 44 M62.72 33 C61.42 39.49, 58.62 45.63, 51.72 44 M51.72 44 C41.81 43.78, 33.29 42.8, 11 44 M51.72 44 C41.1 42.9, 29.86 44.46, 11 44 M11 44 C4.7 43.04, -1.96 38.37, 0 33 M11 44 C4.24 42.15, 0.87 39.16, 0 33 M0 33 C1.58 24.61, -0.2 17.1, 0 11 M0 33 C0.32 23.8, 0.42 16.29, 0 11 M0 11 C-0.79 2.76, 5.17 -0.59, 11 0 M0 11 C-0.95 5.5, 4.38 -0.16, 11 0" stroke="#1e1e1e" stroke-width="2" fill="none"></path></g><g stroke-linecap="round" transform="translate(157.71875 691.5441089408147) rotate(0 46.046875 22)"><path d="M11 0 C34 1.89, 61.65 0.14, 81.09 0 M11 0 C37.41 0.83, 65.76 0.91, 81.09 0 M81.09 0 C86.62 -0.65, 93.15 4.65, 92.09 11 M81.09 0 C89.15 0.8, 90.65 1.64, 92.09 11 M92.09 11 C93.99 16.83, 91.04 26.43, 92.09 33 M92.09 11 C91.32 17.44, 91.69 22.28, 92.09 33 M92.09 33 C91.76 41.92, 87.3 43.27, 81.09 44 M92.09 33 C91.66 41.97, 86.97 43.05, 81.09 44 M81.09 44 C57.48 42.45, 31.67 45.27, 11 44 M81.09 44 C66.29 44.25, 50.96 42.98, 11 44 M11 44 C1.71 42.04, 0.5 38.72, 0 33 M11 44 C4.53 42.83, 1.75 38.48, 0 33 M0 33 C-0.54 26.7, 1.84 18.25, 0 11 M0 33 C0.27 27.94, -0.45 20.68, 0 11 M0 11 C1.5 3.08, 2.84 1.6, 11 0 M0 11 C0.71 3.5, 2.97 -2, 11 0" stroke="#1e1e1e" stroke-width="2" fill="none"></path></g><g stroke-linecap="round" transform="translate(299.8125 691.5441089408147) rotate(0 91.03515625 22)"><path d="M11 0 C55.05 -1.42, 97.6 -1.3, 171.07 0 M11 0 C53.77 -0.26, 94.68 -1.25, 171.07 0 M171.07 0 C179.46 0.99, 182.7 4.36, 182.07 11 M171.07 0 C176.96 -2.03, 182.52 5.1, 182.07 11 M182.07 11 C181.07 19.18, 181.23 26.59, 182.07 33 M182.07 11 C181.23 16.75, 181.69 22.56, 182.07 33 M182.07 33 C180.94 39.6, 178.03 45.42, 171.07 44 M182.07 33 C180.61 39.39, 179.53 43.68, 171.07 44 M171.07 44 C125.92 44.3, 80.16 44.02, 11 44 M171.07 44 C135.92 44.79, 98.75 44.29, 11 44 M11 44 C4.17 42.39, 0.75 39.32, 0 33 M11 44 C5.42 42.14, 0.37 41.94, 0 33 M0 33 C2.03 25.67, -0.56 20.51, 0 11 M0 33 C-0.47 26.85, 0.68 21.31, 0 11 M0 11 C-0.83 5.26, 4.28 -0.14, 11 0 M0 11 C-0.7 1.66, 4.44 -0.83, 11 0" stroke="#1e1e1e" stroke-width="2" fill="none"></path></g><g stroke-linecap="round" transform="translate(531.8828125 691.5441089408147) rotate(0 58.66796875 22)"><path d="M11 0 C49.21 0.07, 83.21 -1.42, 106.34 0 M11 0 C44.21 -0.95, 79.76 -0.14, 106.34 0 M106.34 0 C114.3 0.69, 116.08 1.91, 117.34 11 M106.34 0 C114.12 1.43, 117.56 5.69, 117.34 11 M117.34 11 C116.17 18.25, 116.1 19.58, 117.34 33 M117.34 11 C117.03 20.55, 116.64 28.14, 117.34 33 M117.34 33 C116.96 41.75, 112.4 43.18, 106.34 44 M117.34 33 C118.46 40.01, 113.18 44.97, 106.34 44 M106.34 44 C82.78 45.82, 60.93 45.73, 11 44 M106.34 44 C69.17 42.56, 34.22 42.74, 11 44 M11 44 C4.42 42.98, 1.52 38.72, 0 33 M11 44 C4.03 45.61, -0.13 39.9, 0 33 M0 33 C-0.82 26.14, -1.04 19.01, 0 11 M0 33 C0.84 24.19, -0.33 16.76, 0 11 M0 11 C0.62 3.52, 3.06 -1.74, 11 0 M0 11 C0.78 2.83, 5.61 -1.87, 11 0" stroke="#1e1e1e" stroke-width="2" fill="none"></path></g><g stroke-linecap="round"><g transform="translate(336.0730256347724 252.5) rotate(0 14.323000000000093 51.5)"><path d="M0.01 -0.43 C4.65 6.01, 22.9 22.32, 27.77 39.69 C32.63 57.06, 29.25 93.31, 29.22 103.79 M-1.44 -1.7 C3.58 4.91, 24.99 20.67, 30.02 37.94 C35.05 55.2, 29.21 90.94, 28.75 101.87" stroke="#1e1e1e" stroke-width="2" fill="none"></path></g><g transform="translate(336.0730256347724 252.5) rotate(0 14.323000000000093 51.5)"><path d="M22.41 77.69 C23.78 83.35, 27.52 92.9, 28.75 101.87 M22.41 77.69 C25.04 87.06, 27.15 95.77, 28.75 101.87" stroke="#1e1e1e" stroke-width="2" fill="none"></path></g><g transform="translate(336.0730256347724 252.5) rotate(0 14.323000000000093 51.5)"><path d="M39.44 79.27 C35.77 84.47, 34.49 93.55, 28.75 101.87 M39.44 79.27 C35.85 88.01, 31.72 96.13, 28.75 101.87" stroke="#1e1e1e" stroke-width="2" fill="none"></path></g></g><mask></mask><g mask="url(#mask-eNPkxsF89C_nGoNxyZccO)" stroke-linecap="round"><g transform="translate(253.98199999999997 575.2601089408147) rotate(0 -88.81150000000002 57.891999999999996)"><path d="M-0.88 0.69 C-30.39 7.11, -147.42 18.96, -177.05 38.08 C-206.69 57.2, -178.72 102.35, -178.71 115.4 M0.86 0.01 C-28.76 6.13, -148.16 16.96, -177.7 36.37 C-207.24 55.79, -176.6 103.55, -176.38 116.51" stroke="#1e1e1e" stroke-width="2" fill="none"></path></g><g transform="translate(253.98199999999997 575.2601089408147) rotate(0 -88.81150000000002 57.891999999999996)"><path d="M-191.47 96.58 C-185.84 103.64, -181.13 106.88, -176.38 116.51 M-191.47 96.58 C-187.01 102.19, -183.91 106.3, -176.38 116.51" stroke="#1e1e1e" stroke-width="2" fill="none"></path></g><g transform="translate(253.98199999999997 575.2601089408147) rotate(0 -88.81150000000002 57.891999999999996)"><path d="M-175.13 91.54 C-174.44 100, -174.65 104.76, -176.38 116.51 M-175.13 91.54 C-175.02 98.58, -176.3 104.04, -176.38 116.51" stroke="#1e1e1e" stroke-width="2" fill="none"></path></g></g><mask id="mask-eNPkxsF89C_nGoNxyZccO"><rect x="0" y="0" fill="#fff" width="531.605" height="792.0441089408147"></rect><rect x="43.42903021240227" y="600.0441089408147" fill="#000" width="65.85993957519531" height="25" opacity="1"></rect></mask><g mask="url(#mask-RqdyMCOXCNsuRBZBb0AsH)" stroke-linecap="round"><g transform="translate(253.98199999999997 587.8121089408146) rotate(0 -25.107999999999947 51.616000000000014)"><path d="M0.57 0.79 C-7.83 4.74, -42.94 7.17, -51.3 24.34 C-59.66 41.52, -49.83 90.61, -49.58 103.82 M-0.59 0.17 C-8.56 4.22, -40.92 8.74, -49.16 25.68 C-57.4 42.62, -49.98 88.58, -50.02 101.79" stroke="#1e1e1e" stroke-width="2" fill="none"></path></g><g transform="translate(253.98199999999997 587.8121089408146) rotate(0 -25.107999999999947 51.616000000000014)"><path d="M-60.21 78.97 C-56.44 82.29, -56.1 90.33, -50.02 101.79 M-60.21 78.97 C-57.2 86.03, -52.82 95.5, -50.02 101.79" stroke="#1e1e1e" stroke-width="2" fill="none"></path></g><g transform="translate(253.98199999999997 587.8121089408146) rotate(0 -25.107999999999947 51.616000000000014)"><path d="M-43.15 77.75 C-43.24 81.43, -46.77 89.75, -50.02 101.79 M-43.15 77.75 C-46.1 85.3, -47.68 95.2, -50.02 101.79" stroke="#1e1e1e" stroke-width="2" fill="none"></path></g></g><mask id="mask-RqdyMCOXCNsuRBZBb0AsH"><rect x="0" y="0" fill="#fff" width="404.198" height="792.0441089408146"></rect><rect x="170.83603021240242" y="600.0441089408146" fill="#000" width="65.85993957519531" height="25" opacity="1"></rect></mask><g mask="url(#mask-aVBf0o-r-QAF3ddiNNw1m)" stroke-linecap="round"><g transform="translate(340.63099999999986 587.8121089408146) rotate(0 25.10850000000005 51.616000000000014)"><path d="M-1.08 -0.39 C7.3 3.7, 42.24 7.99, 50.85 25.32 C59.46 42.66, 50.83 90.84, 50.6 103.65 M0.55 -1.64 C8.77 2.03, 41.99 6.32, 50.24 23.51 C58.48 40.71, 50.18 88.32, 50.03 101.52" stroke="#1e1e1e" stroke-width="2" fill="none"></path></g><g transform="translate(340.63099999999986 587.8121089408146) rotate(0 25.10850000000005 51.616000000000014)"><path d="M43.52 77.39 C45.3 86.89, 49.19 94.85, 50.03 101.52 M43.52 77.39 C45.75 86.14, 47.82 94.48, 50.03 101.52" stroke="#1e1e1e" stroke-width="2" fill="none"></path></g><g transform="translate(340.63099999999986 587.8121089408146) rotate(0 25.10850000000005 51.616000000000014)"><path d="M60.56 78.85 C56.41 87.69, 54.38 95.14, 50.03 101.52 M60.56 78.85 C57.09 86.97, 53.46 94.82, 50.03 101.52" stroke="#1e1e1e" stroke-width="2" fill="none"></path></g></g><mask id="mask-aVBf0o-r-QAF3ddiNNw1m"><rect x="0" y="0" fill="#fff" width="490.8479999999999" height="792.0441089408146"></rect><rect x="357.9180302124023" y="600.0441089408146" fill="#000" width="65.85993957519531" height="25" opacity="1"></rect></mask><g mask="url(#mask-4omhItxxVHnmy09UnoD8d)" stroke-linecap="round"><g transform="translate(340.63099999999986 572.9881089408148) rotate(0 124.96000000000004 59.02799999999999)"><path d="M0.63 0.59 C42.53 7.32, 208.88 20.57, 250.3 39.97 C291.72 59.37, 249.19 103.86, 249.17 117 M-0.49 -0.14 C41.37 6.25, 207.52 18.42, 249.55 38.07 C291.58 57.72, 251.5 104.67, 251.66 117.76" stroke="#1e1e1e" stroke-width="2" fill="none"></path></g><g transform="translate(340.63099999999986 572.9881089408148) rotate(0 124.96000000000004 59.02799999999999)"><path d="M252.12 92.77 C252.93 98.64, 252.54 101.99, 251.66 117.76 M252.12 92.77 C252.17 98.95, 251.38 102.77, 251.66 117.76" stroke="#1e1e1e" stroke-width="2" fill="none"></path></g><g transform="translate(340.63099999999986 572.9881089408148) rotate(0 124.96000000000004 59.02799999999999)"><path d="M268.08 98.91 C265.56 103.58, 261.83 105.64, 251.66 117.76 M268.08 98.91 C264.73 103.89, 260.56 106.41, 251.66 117.76" stroke="#1e1e1e" stroke-width="2" fill="none"></path></g></g><mask id="mask-4omhItxxVHnmy09UnoD8d"><rect x="0" y="0" fill="#fff" width="690.5509999999999" height="792.0441089408148"></rect><rect x="557.6210302124023" y="600.0441089408148" fill="#000" width="65.85993957519531" height="25" opacity="1"></rect></mask><g mask="url(#mask-X-dnaV6-oW6gB3ciFwrE9)" stroke-linecap="round"><g transform="translate(320.1180256347725 79.5) rotate(0 0 64)"><path d="M0.38 0.42 C0.15 21.47, -0.73 105.55, -0.75 126.94 M-0.88 -0.41 C-0.78 20.71, 1.48 106.72, 1.56 127.93" stroke="#1e1e1e" stroke-width="2" fill="none"></path></g><g transform="translate(320.1180256347725 79.5) rotate(0 0 64)"><path d="M-7.37 104.58 C-3.41 111.53, -2.71 121.42, 1.56 127.93 M-7.37 104.58 C-4.71 112.37, -0.19 120.9, 1.56 127.93" stroke="#1e1e1e" stroke-width="2" fill="none"></path></g><g transform="translate(320.1180256347725 79.5) rotate(0 0 64)"><path d="M9.72 104.3 C7.65 111.4, 2.32 121.39, 1.56 127.93 M9.72 104.3 C6.19 112.34, 4.52 120.97, 1.56 127.93" stroke="#1e1e1e" stroke-width="2" fill="none"></path></g></g><mask id="mask-X-dnaV6-oW6gB3ciFwrE9"><rect x="0" y="0" fill="#fff" width="420.1180256347725" height="308.5"></rect><rect x="230.828108642585" y="131" fill="#000" width="178.579833984375" height="25" opacity="1"></rect></mask><g mask="url(#mask-ZWpEA9vayDdEi3DlutQPC)" stroke-linecap="round"><g transform="translate(368.9599832243125 253.65911247384838) rotate(0 129.219811652006 154.17655447040738)"><path d="M-0.75 -1.06 C46.93 17.36, 291 59.15, 286.5 110.89 C282.01 162.64, 24.8 276.62, -27.71 309.41 M1.05 1 C48.57 19.04, 290.59 58.06, 285.68 109.16 C280.77 160.27, 23.97 274.42, -28.42 307.62" stroke="#1e1e1e" stroke-width="2" fill="none"></path></g><g transform="translate(368.9599832243125 253.65911247384838) rotate(0 129.219811652006 154.17655447040738)"><path d="M-11.69 289.05 C-18.93 295.49, -21.47 301.45, -28.42 307.62 M-11.69 289.05 C-17.61 295.64, -23.81 302.82, -28.42 307.62" stroke="#1e1e1e" stroke-width="2" fill="none"></path></g><g transform="translate(368.9599832243125 253.65911247384838) rotate(0 129.219811652006 154.17655447040738)"><path d="M-3.66 304.15 C-13.62 305.54, -18.82 306.49, -28.42 307.62 M-3.66 304.15 C-12.61 304.83, -21.92 306.15, -28.42 307.62" stroke="#1e1e1e" stroke-width="2" fill="none"></path></g></g><mask id="mask-ZWpEA9vayDdEi3DlutQPC"><rect x="0" y="0" fill="#fff" width="783.0575729769497" height="662.0122214146631"></rect><rect x="578.4886529240239" y="351.3017726747664" fill="#000" width="153.47987365722656" height="25" opacity="1"></rect></mask><g transform="translate(235.76947784423828 523.5441089408147) rotate(0 111.33989715576172 12.5)"><text x="111.33989715576172" y="0" font-family="Virgil, Segoe UI Emoji" font-size="20px" fill="#1e1e1e" text-anchor="middle" style="white-space: pre;" direction="ltr" dominant-baseline="text-before-edge">Message Queue Server</text></g><g transform="translate(278.3879822998115 15) rotate(0 41.72996520996094 12.5)"><text x="41.72996520996094" y="0" font-family="Virgil, Segoe UI Emoji" font-size="20px" fill="#1e1e1e" text-anchor="middle" style="white-space: pre;" direction="ltr" dominant-baseline="text-before-edge">Frontend</text></g><g transform="translate(239.4205064086982 188) rotate(0 75.50994110107422 12.5)"><text x="75.50994110107422" y="0" font-family="Virgil, Segoe UI Emoji" font-size="20px" fill="#1e1e1e" text-anchor="middle" style="white-space: pre;" direction="ltr" dominant-baseline="text-before-edge">Backend Server</text></g><g transform="translate(190.19802563477242 217.5) rotate(0 129.919921875 12.5)"><text x="129.919921875" y="0" font-family="Virgil, Segoe UI Emoji" font-size="20px" fill="#1e1e1e" text-anchor="middle" style="white-space: pre;" direction="ltr" dominant-baseline="text-before-edge">Django / REST Framework</text></g><g transform="translate(307.58956616211617 365.5) rotate(0 57.12994384765625 12.5)"><text x="57.12994384765625" y="0" font-family="Virgil, Segoe UI Emoji" font-size="20px" fill="#1e1e1e" text-anchor="middle" style="white-space: pre;" direction="ltr" dominant-baseline="text-before-edge">PostgreSQL</text></g><g transform="translate(285.4879807739326 44.5) rotate(0 34.629966735839844 12.5)"><text x="34.629966735839844" y="0" font-family="Virgil, Segoe UI Emoji" font-size="20px" fill="#1e1e1e" text-anchor="middle" style="white-space: pre;" direction="ltr" dominant-baseline="text-before-edge">Next.js</text></g><g transform="translate(268.3066711425781 553.0441089408147) rotate(0 28.999969482421875 12.5)"><text x="28.999969482421875" y="0" font-family="Virgil, Segoe UI Emoji" font-size="20px" fill="#1e1e1e" text-anchor="middle" style="white-space: pre;" direction="ltr" dominant-baseline="text-before-edge">Celery</text></g><g transform="translate(58.349388122558594 701.0441089408147) rotate(0 18.009986877441406 12.5)"><text x="18.009986877441406" y="0" font-family="Virgil, Segoe UI Emoji" font-size="20px" fill="#1e1e1e" text-anchor="middle" style="white-space: pre;" direction="ltr" dominant-baseline="text-before-edge">Web</text></g><g transform="translate(170.76565551757812 701.0441089408147) rotate(0 32.999969482421875 12.5)"><text x="32.999969482421875" y="0" font-family="Virgil, Segoe UI Emoji" font-size="20px" fill="#1e1e1e" text-anchor="middle" style="white-space: pre;" direction="ltr" dominant-baseline="text-before-edge">Docker</text></g><g transform="translate(318.43772888183594 701.0441089408147) rotate(0 72.40992736816406 12.5)"><text x="72.40992736816406" y="0" font-family="Virgil, Segoe UI Emoji" font-size="20px" fill="#1e1e1e" text-anchor="middle" style="white-space: pre;" direction="ltr" dominant-baseline="text-before-edge">System Service</text></g><g transform="translate(541.1108169555664 701.0441089408147) rotate(0 49.439964294433594 12.5)"><text x="49.439964294433594" y="0" font-family="Virgil, Segoe UI Emoji" font-size="20px" fill="#1e1e1e" text-anchor="middle" style="white-space: pre;" direction="ltr" dominant-baseline="text-before-edge">Database</text></g><g transform="translate(43.42903021240227 600.0441089408147) rotate(0 115.64771022937293 33.47821228082478)"><text x="32.929969787597656" y="0" font-family="Virgil, Segoe UI Emoji" font-size="20px" fill="#1e1e1e" text-anchor="middle" style="white-space: pre;" direction="ltr" dominant-baseline="text-before-edge">Access</text></g><g transform="translate(170.83603021240242 600.0441089408147) rotate(0 56.09987625955773 39.763368115291)"><text x="32.929969787597656" y="0" font-family="Virgil, Segoe UI Emoji" font-size="20px" fill="#1e1e1e" text-anchor="middle" style="white-space: pre;" direction="ltr" dominant-baseline="text-before-edge">Access</text></g><g transform="translate(357.9180302124023 600.0441089408147) rotate(0 9.502838652717855 38.774113775208576)"><text x="32.929969787597656" y="0" font-family="Virgil, Segoe UI Emoji" font-size="20px" fill="#1e1e1e" text-anchor="middle" style="white-space: pre;" direction="ltr" dominant-baseline="text-before-edge">Access</text></g><g transform="translate(557.6210302124023 600.0441089408147) rotate(0 -82.8594312577759 31.75405232299866)"><text x="32.929969787597656" y="0" font-family="Virgil, Segoe UI Emoji" font-size="20px" fill="#1e1e1e" text-anchor="middle" style="white-space: pre;" direction="ltr" dominant-baseline="text-before-edge">Access</text></g><g transform="translate(230.828108642585 131) rotate(0 89.62974582307038 12.257495548799625)"><text x="89.2899169921875" y="0" font-family="Virgil, Segoe UI Emoji" font-size="20px" fill="#1e1e1e" text-anchor="middle" style="white-space: pre;" direction="ltr" dominant-baseline="text-before-edge">Communicates with</text></g><g transform="translate(578.4886529240239 351.3017726747664) rotate(0 -80.45529388196269 56.534411317803546)"><text x="76.73993682861328" y="0" font-family="Virgil, Segoe UI Emoji" font-size="20px" fill="#1e1e1e" text-anchor="middle" style="white-space: pre;" direction="ltr" dominant-baseline="text-before-edge">Places tasks in</text></g></svg>
